<svg width="178" height="55" viewBox="0 0 178 55" fill="none" xmlns="http://www.w3.org/2000/svg">
<path d="M156.046 8H170V54H1V42.9259" stroke="white"/>
<path d="M6.22 14.712C6.22 15.648 6.448 16.464 6.904 17.16C7.36 17.856 7.912 18.444 8.56 18.924C9.208 19.38 10.12 19.968 11.296 20.688C12.544 21.432 13.516 22.056 14.212 22.56C14.908 23.064 15.496 23.712 15.976 24.504C16.48 25.272 16.732 26.196 16.732 27.276C16.732 28.428 16.444 29.472 15.868 30.408C15.292 31.344 14.44 32.088 13.312 32.64C12.208 33.168 10.876 33.432 9.316 33.432C7.468 33.432 5.776 33.012 4.24 32.172C4.12 32.1 4.036 32.016 3.988 31.92C3.964 31.824 3.94 31.68 3.916 31.488L3.448 26.592C3.424 26.496 3.472 26.436 3.592 26.412C3.736 26.388 3.82 26.424 3.844 26.52C4.228 28.248 4.936 29.736 5.968 30.984C7.024 32.232 8.416 32.856 10.144 32.856C11.344 32.856 12.352 32.532 13.168 31.884C14.008 31.212 14.428 30.156 14.428 28.716C14.428 27.636 14.188 26.7 13.708 25.908C13.228 25.116 12.64 24.468 11.944 23.964C11.272 23.436 10.348 22.824 9.172 22.128C8.02 21.432 7.108 20.832 6.436 20.328C5.788 19.824 5.236 19.188 4.78 18.42C4.324 17.652 4.096 16.752 4.096 15.72C4.096 14.52 4.408 13.5 5.032 12.66C5.68 11.796 6.508 11.16 7.516 10.752C8.548 10.32 9.64 10.104 10.792 10.104C12.208 10.104 13.612 10.392 15.004 10.968C15.364 11.088 15.544 11.292 15.544 11.58L15.796 15.72C15.796 15.816 15.736 15.864 15.616 15.864C15.496 15.864 15.424 15.816 15.4 15.72C15.208 14.472 14.692 13.32 13.852 12.264C13.012 11.184 11.8 10.644 10.216 10.644C8.872 10.644 7.864 11.04 7.192 11.832C6.544 12.6 6.22 13.56 6.22 14.712ZM39.8156 32.568C39.8876 32.568 39.9236 32.64 39.9236 32.784C39.9236 32.928 39.8876 33 39.8156 33C39.1436 33 38.6036 32.988 38.1956 32.964L36.0356 32.928L33.8396 32.964C33.4556 32.988 32.9276 33 32.2556 33C32.1836 33 32.1476 32.928 32.1476 32.784C32.1476 32.64 32.1836 32.568 32.2556 32.568C33.0476 32.568 33.6236 32.508 33.9836 32.388C34.3436 32.268 34.5836 32.04 34.7036 31.704C34.8476 31.344 34.9196 30.804 34.9196 30.084V24.828H24.8396V30.084C24.8396 30.828 24.8996 31.368 25.0196 31.704C25.1636 32.04 25.4156 32.268 25.7756 32.388C26.1356 32.508 26.7236 32.568 27.5396 32.568C27.5876 32.568 27.6116 32.64 27.6116 32.784C27.6116 32.928 27.5876 33 27.5396 33C26.8676 33 26.3396 32.988 25.9556 32.964L23.7236 32.928L21.5996 32.964C21.1916 32.988 20.6396 33 19.9436 33C19.8956 33 19.8716 32.928 19.8716 32.784C19.8716 32.64 19.8956 32.568 19.9436 32.568C20.7356 32.568 21.3116 32.508 21.6716 32.388C22.0556 32.268 22.3196 32.04 22.4636 31.704C22.6076 31.344 22.6796 30.804 22.6796 30.084V19.068C22.6796 18.348 22.6076 17.82 22.4636 17.484C22.3436 17.148 22.0916 16.92 21.7076 16.8C21.3476 16.656 20.7716 16.584 19.9796 16.584C19.9316 16.584 19.9076 16.512 19.9076 16.368C19.9076 16.224 19.9316 16.152 19.9796 16.152L21.5996 16.188C22.5116 16.236 23.2196 16.26 23.7236 16.26C24.3236 16.26 25.0796 16.236 25.9916 16.188L27.5396 16.152C27.5876 16.152 27.6116 16.224 27.6116 16.368C27.6116 16.512 27.5876 16.584 27.5396 16.584C26.7716 16.584 26.1956 16.656 25.8116 16.8C25.4276 16.944 25.1636 17.196 25.0196 17.556C24.8996 17.892 24.8396 18.42 24.8396 19.14V24.18H34.9196V19.14C34.9196 18.42 34.8476 17.892 34.7036 17.556C34.5836 17.196 34.3316 16.944 33.9476 16.8C33.5876 16.656 33.0236 16.584 32.2556 16.584C32.1836 16.584 32.1476 16.512 32.1476 16.368C32.1476 16.224 32.1836 16.152 32.2556 16.152L33.8396 16.188C34.7036 16.236 35.4356 16.26 36.0356 16.26C36.5636 16.26 37.2836 16.236 38.1956 16.188L39.8156 16.152C39.8876 16.152 39.9236 16.224 39.9236 16.368C39.9236 16.512 39.8876 16.584 39.8156 16.584C39.0236 16.584 38.4356 16.656 38.0516 16.8C37.6916 16.92 37.4396 17.148 37.2956 17.484C37.1516 17.82 37.0796 18.348 37.0796 19.068V30.084C37.0796 30.804 37.1516 31.344 37.2956 31.704C37.4396 32.04 37.6916 32.268 38.0516 32.388C38.4356 32.508 39.0236 32.568 39.8156 32.568ZM50.9781 33.432C49.2981 33.432 47.7981 33.036 46.4781 32.244C45.1821 31.452 44.1741 30.384 43.4541 29.04C42.7341 27.696 42.3741 26.244 42.3741 24.684C42.3741 22.812 42.8541 21.204 43.8141 19.86C44.7981 18.492 46.0341 17.46 47.5221 16.764C49.0341 16.068 50.5701 15.72 52.1301 15.72C53.8101 15.72 55.2861 16.14 56.5581 16.98C57.8541 17.796 58.8381 18.864 59.5101 20.184C60.2061 21.504 60.5541 22.884 60.5541 24.324C60.5541 25.932 60.1221 27.444 59.2581 28.86C58.3941 30.252 57.2301 31.368 55.7661 32.208C54.3021 33.024 52.7061 33.432 50.9781 33.432ZM51.9141 32.676C53.7861 32.676 55.2741 32.016 56.3781 30.696C57.5061 29.376 58.0701 27.552 58.0701 25.224C58.0701 23.616 57.7821 22.152 57.2061 20.832C56.6541 19.512 55.8381 18.456 54.7581 17.664C53.6781 16.872 52.3941 16.476 50.9061 16.476C48.9861 16.476 47.4981 17.124 46.4421 18.42C45.3861 19.692 44.8581 21.48 44.8581 23.784C44.8581 25.44 45.1341 26.94 45.6861 28.284C46.2621 29.628 47.0781 30.696 48.1341 31.488C49.2141 32.28 50.4741 32.676 51.9141 32.676ZM76.6875 28.212C76.6875 28.14 76.7475 28.104 76.8675 28.104C77.0115 28.104 77.0835 28.14 77.0835 28.212C76.9155 29.94 76.8315 31.356 76.8315 32.46C76.8315 32.652 76.7955 32.796 76.7235 32.892C76.6515 32.964 76.5075 33 76.2915 33H63.1155C63.0675 33 63.0435 32.928 63.0435 32.784C63.0435 32.64 63.0675 32.568 63.1155 32.568C63.9075 32.568 64.4835 32.508 64.8435 32.388C65.2035 32.268 65.4435 32.04 65.5635 31.704C65.7075 31.344 65.7795 30.804 65.7795 30.084V19.068C65.7795 18.348 65.7075 17.82 65.5635 17.484C65.4435 17.148 65.2035 16.92 64.8435 16.8C64.4835 16.656 63.9075 16.584 63.1155 16.584C63.0675 16.584 63.0435 16.512 63.0435 16.368C63.0435 16.224 63.0675 16.152 63.1155 16.152H75.6435C75.8835 16.152 76.0035 16.248 76.0035 16.44L76.0395 18.672C76.0635 19.128 76.0755 19.704 76.0755 20.4C76.0755 20.472 76.0035 20.508 75.8595 20.508C75.7155 20.508 75.6435 20.472 75.6435 20.4C75.5475 19.296 75.1395 18.396 74.4195 17.7C73.7235 16.98 72.8595 16.62 71.8275 16.62H70.8195C69.9795 16.62 69.3675 16.692 68.9835 16.836C68.5995 16.956 68.3355 17.184 68.1915 17.52C68.0475 17.856 67.9755 18.384 67.9755 19.104V24.036C70.3035 24.012 71.8875 23.952 72.7275 23.856C73.5915 23.736 74.0835 23.676 74.2035 23.676C74.3235 23.676 74.3835 23.928 74.3835 24.432C74.3835 24.984 74.3235 25.26 74.2035 25.26C74.1075 25.26 73.6275 25.2 72.7635 25.08C71.8995 24.936 70.3035 24.84 67.9755 24.792V29.94C67.9755 30.636 68.0475 31.164 68.1915 31.524C68.3355 31.86 68.5995 32.1 68.9835 32.244C69.3915 32.364 70.0035 32.424 70.8195 32.424H72.5475C73.5075 32.424 74.3715 32.04 75.1395 31.272C75.9075 30.48 76.4235 29.46 76.6875 28.212ZM82.1187 33.396C81.6387 33.396 81.2547 33.252 80.9667 32.964C80.6787 32.676 80.5347 32.304 80.5347 31.848C80.5347 31.392 80.6787 31.032 80.9667 30.768C81.2547 30.48 81.6387 30.336 82.1187 30.336C82.6227 30.336 83.0067 30.468 83.2707 30.732C83.5587 30.996 83.7027 31.368 83.7027 31.848C83.7027 32.328 83.5587 32.712 83.2707 33C83.0067 33.264 82.6227 33.396 82.1187 33.396ZM96.8523 15.72C97.7643 15.72 98.7363 15.816 99.7683 16.008C100.824 16.2 101.676 16.452 102.324 16.764C102.492 16.836 102.6 16.908 102.648 16.98C102.696 17.052 102.732 17.184 102.756 17.376L103.116 21.084C103.116 21.156 103.044 21.204 102.9 21.228C102.78 21.252 102.708 21.216 102.684 21.12C102.252 19.464 101.46 18.24 100.308 17.448C99.1803 16.656 97.7763 16.26 96.0963 16.26C94.8483 16.26 93.7203 16.596 92.7123 17.268C91.7283 17.94 90.9483 18.864 90.3723 20.04C89.8203 21.192 89.5443 22.5 89.5443 23.964C89.5443 25.452 89.8203 26.892 90.3723 28.284C90.9483 29.652 91.8003 30.768 92.9283 31.632C94.0803 32.496 95.4603 32.928 97.0683 32.928C100.092 32.928 102.072 31.272 103.008 27.96C103.008 27.888 103.068 27.852 103.188 27.852C103.236 27.852 103.284 27.876 103.332 27.924C103.404 27.948 103.44 27.972 103.44 27.996L102.972 31.812C102.948 32.004 102.912 32.136 102.864 32.208C102.816 32.28 102.684 32.364 102.468 32.46C100.62 33.108 98.7003 33.432 96.7083 33.432C94.4283 33.432 92.5563 32.976 91.0923 32.064C89.6283 31.152 88.5723 30.012 87.9243 28.644C87.2763 27.276 86.9523 25.896 86.9523 24.504C86.9523 22.872 87.3843 21.384 88.2483 20.04C89.1123 18.696 90.3003 17.64 91.8123 16.872C93.3243 16.104 95.0043 15.72 96.8523 15.72ZM114.681 33.432C113.001 33.432 111.501 33.036 110.181 32.244C108.885 31.452 107.877 30.384 107.157 29.04C106.437 27.696 106.077 26.244 106.077 24.684C106.077 22.812 106.557 21.204 107.517 19.86C108.501 18.492 109.737 17.46 111.225 16.764C112.737 16.068 114.273 15.72 115.833 15.72C117.513 15.72 118.989 16.14 120.261 16.98C121.557 17.796 122.541 18.864 123.213 20.184C123.909 21.504 124.257 22.884 124.257 24.324C124.257 25.932 123.825 27.444 122.961 28.86C122.097 30.252 120.933 31.368 119.469 32.208C118.005 33.024 116.409 33.432 114.681 33.432ZM115.617 32.676C117.489 32.676 118.977 32.016 120.081 30.696C121.209 29.376 121.773 27.552 121.773 25.224C121.773 23.616 121.485 22.152 120.909 20.832C120.357 19.512 119.541 18.456 118.461 17.664C117.381 16.872 116.097 16.476 114.609 16.476C112.689 16.476 111.201 17.124 110.145 18.42C109.089 19.692 108.561 21.48 108.561 23.784C108.561 25.44 108.837 26.94 109.389 28.284C109.965 29.628 110.781 30.696 111.837 31.488C112.917 32.28 114.177 32.676 115.617 32.676ZM149.283 32.568C149.331 32.568 149.355 32.64 149.355 32.784C149.355 32.928 149.331 33 149.283 33C148.611 33 148.083 32.988 147.699 32.964L145.575 32.928L143.127 32.964C142.719 32.988 142.155 33 141.435 33C141.387 33 141.363 32.928 141.363 32.784C141.363 32.64 141.387 32.568 141.435 32.568C142.323 32.568 142.983 32.508 143.415 32.388C143.847 32.244 144.135 32.004 144.279 31.668C144.423 31.332 144.471 30.804 144.423 30.084L143.991 17.952L137.799 32.748C137.751 32.844 137.667 32.892 137.547 32.892C137.403 32.892 137.307 32.844 137.259 32.748L130.383 19.14L130.311 18.996L129.987 29.076C129.963 30.348 130.131 31.248 130.491 31.776C130.851 32.304 131.463 32.568 132.327 32.568C132.399 32.568 132.435 32.64 132.435 32.784C132.435 32.928 132.399 33 132.327 33C131.823 33 131.439 32.988 131.175 32.964L129.591 32.928L128.079 32.964C127.767 32.988 127.335 33 126.783 33C126.735 33 126.711 32.928 126.711 32.784C126.711 32.64 126.735 32.568 126.783 32.568C127.671 32.568 128.295 32.304 128.655 31.776C129.015 31.248 129.219 30.348 129.267 29.076L129.627 17.916C128.931 17.028 128.079 16.584 127.071 16.584C126.999 16.584 126.963 16.512 126.963 16.368C126.963 16.224 126.999 16.152 127.071 16.152L129.051 16.188L130.779 16.152C131.091 16.152 131.343 16.26 131.535 16.476C131.727 16.692 132.027 17.208 132.435 18.024L138.339 29.76L143.667 17.052C143.763 16.788 143.907 16.572 144.099 16.404C144.315 16.236 144.531 16.152 144.747 16.152L146.655 16.188L149.067 16.152C149.115 16.152 149.139 16.224 149.139 16.368C149.139 16.512 149.115 16.584 149.067 16.584C147.987 16.584 147.231 16.752 146.799 17.088C146.367 17.4 146.175 18.036 146.223 18.996L146.655 30.084C146.703 30.828 146.787 31.368 146.907 31.704C147.027 32.04 147.255 32.268 147.591 32.388C147.951 32.508 148.515 32.568 149.283 32.568Z" fill="white"/>
</svg>
